<svg id="Ebene_1" data-name="Ebene 1" xmlns="http://www.w3.org/2000/svg" viewBox="0 0 265 265"><defs><style>.cls-1{fill:#8c827a;}.cls-2{fill:none;stroke:#fff;stroke-linecap:round;stroke-linejoin:round;stroke-width:2px;}</style></defs><rect class="cls-1" width="265" height="265"/><path class="cls-2" d="M85.42,120.89h0l.08.49,0,.2,0,.2v0l.42,2,.05.2v0l0,.2,0,.2a48.47,48.47,0,0,0,12.63,22.61h0l.34.3-13.4,13.43c-1.36,1.38-2.67,2.77-3.85,4.2a20.65,20.65,0,0,1-2.94.84,24.71,24.71,0,0,1-4.79.39,23.94,23.94,0,0,1-17-7l0,.05a24.23,24.23,0,0,1-7-17,24.1,24.1,0,0,1,24-24,21.62,21.62,0,0,1,7.23,1.14A21.9,21.9,0,0,1,85.42,120.89ZM59.6,227.34h0V205a4.18,4.18,0,1,0-8.35,0v12.29H39.16V206.45a27.83,27.83,0,0,1,2-10.61h0A27.24,27.24,0,0,1,47.26,187l10.49-10.47a38,38,0,0,0,15.6,3.65,52.61,52.61,0,0,0-2.94,17.58v14.81a17.38,17.38,0,0,0,3.09,9.88,13.27,13.27,0,0,0,6.32,4.94Zm120-106.45h0a26.37,26.37,0,0,1,11.25-2.72,24.07,24.07,0,0,1,17,41.08v-.05a23.91,23.91,0,0,1-17,7,24.41,24.41,0,0,1-4.78-.39,20.65,20.65,0,0,1-2.94-.84c-1.22-1.43-2.5-2.82-3.86-4.2h0l-13.38-13.43.32-.3h.05a48.58,48.58,0,0,0,12.64-22.61l0-.2.05-.2v0l0-.2.42-2v0l0-.2.05-.2ZM205.4,227.34H185.18a13.29,13.29,0,0,0,6.29-4.94,17.18,17.18,0,0,0,3.11-9.88V197.71a52.61,52.61,0,0,0-2.93-17.58,38,38,0,0,0,15.6-3.65L217.74,187a27.36,27.36,0,0,1,6.1,8.89,28.21,28.21,0,0,1,2,10.61v10.81H213.74V205a4.17,4.17,0,1,0-8.34,0Zm-106.67-114h0a33.77,33.77,0,1,1,67.54,0C166.27,157.43,98.73,157.43,98.73,113.33Zm12.32,114h0v-6.23l0-.69V195.74a4.18,4.18,0,0,0-8.35,0v18.37h-18a3.46,3.46,0,0,1-.34-1.59V197.71A38,38,0,0,1,87.12,183V183a35,35,0,0,1,4.47-7.75v0l.1-.1,0-.05.05-.1.08-.1a38.41,38.41,0,0,1,3.72-4.24l14.91-14.91a48.09,48.09,0,0,0,44,0l14.92,14.91a40.39,40.39,0,0,1,3.7,4.24l.1.1,0,.1.05.05.1.1v0a34.58,34.58,0,0,1,4.47,7.75V183a38.39,38.39,0,0,1,2.79,14.71v14.81a3.46,3.46,0,0,1-.34,1.59h-18V195.74a4.17,4.17,0,0,0-8.34,0v24.68l-.05.69v6.23ZM132.5,65.64A47.84,47.84,0,0,0,85.37,106a38.11,38.11,0,0,0-11.21-1.68,37.9,37.9,0,0,0-27.72,63.79l-9,9.08a41.34,41.34,0,0,0-9.06,13.34h0a42.12,42.12,0,0,0-3.06,15.94v11.26a15,15,0,0,0,2.67,8.49,11.73,11.73,0,0,0,8.12,5h9.52v3.06a7,7,0,0,0,7,7H212.46a7,7,0,0,0,7-7v-3.06H229a11.83,11.83,0,0,0,8.12-5,15,15,0,0,0,2.67-8.49V206.45a40.22,40.22,0,0,0-12.15-29.28l-9-9.08a37.88,37.88,0,0,0-27.72-63.79A38.4,38.4,0,0,0,179.6,106,47.8,47.8,0,0,0,132.5,65.64Z"/></svg>