<svg id="Ebene_1" data-name="Ebene 1" xmlns="http://www.w3.org/2000/svg" xmlns:xlink="http://www.w3.org/1999/xlink" viewBox="0 0 265 265"><defs><style>.cls-1,.cls-4{fill:none;}.cls-2{fill:#8c8279;}.cls-3{clip-path:url(#clip-path);}.cls-4{stroke:#fff;stroke-miterlimit:10;stroke-width:2px;}</style><clipPath id="clip-path"><rect class="cls-1" x="45.99" y="68.08" width="173.02" height="185.57"/></clipPath></defs><rect class="cls-2" width="265" height="265"/><g class="cls-3"><path class="cls-4" d="M202.57,105.21H62.48v84H202.57ZM91.24,183.38h82.52a4.32,4.32,0,0,0,0-8.64H91.24a4.32,4.32,0,1,0,0,8.64Zm-36-92.58h68.46l4.6-17.17a3.32,3.32,0,0,1,.36-1,4.15,4.15,0,0,1,5.78-1.94,4.24,4.24,0,0,1,1.94,1.94,2.26,2.26,0,0,1,.36,1l4.64,17.17h68.36A7.19,7.19,0,0,1,216.93,98v98.51a7.16,7.16,0,0,1-7.21,7.15H171.61L183,246.12a4.32,4.32,0,0,1-3.06,5.31,4.43,4.43,0,0,1-5.32-3.07l-11.95-44.75H136.76v25.24a4.28,4.28,0,0,1-4.29,4.29,4.32,4.32,0,0,1-4.29-4.29V203.61h-25.8l-12,44.75a4.31,4.31,0,1,1-8.32-2.24l11.39-42.51H55.22a7.11,7.11,0,0,1-7.15-7.15V98A7.14,7.14,0,0,1,55.22,90.8Z"/></g></svg>