<svg id="Ebene_1" data-name="Ebene 1" xmlns="http://www.w3.org/2000/svg" xmlns:xlink="http://www.w3.org/1999/xlink" viewBox="0 0 265 265"><defs><style>.cls-1,.cls-4{fill:none;}.cls-2{fill:#8c8279;}.cls-3{clip-path:url(#clip-path);}.cls-4{stroke:#fff;stroke-miterlimit:10;stroke-width:2px;}</style><clipPath id="clip-path"><rect class="cls-1" x="44.41" y="72.8" width="176.19" height="174.88"/></clipPath></defs><rect class="cls-2" width="265" height="265"/><g class="cls-3"><path class="cls-4" d="M61.35,105.54h54l-14.84-15.8H61.35ZM46.51,82.32a7.38,7.38,0,0,1,7.42-7.42h49.75a7.29,7.29,0,0,1,5.74,2.74l26.27,27.9h75.38a7.42,7.42,0,0,1,7.42,7.48V238.15a7.41,7.41,0,0,1-7.42,7.42H53.93a7.41,7.41,0,0,1-7.42-7.42V82.32ZM61.35,230.73h142.3V120.39H61.35Z"/></g></svg>